<svg xmlns="http://www.w3.org/2000/svg" width="2in" height="2in" viewBox="0 0 144 144">
  <title>Artboard 27</title>
  <g>
    <path d="M48.329,41.616q7.716,12.338,15.442,24.668a10.163,10.163,0,0,0,2.172,2.626,3.483,3.483,0,0,0,2.841.924,3.338,3.338,0,0,0,2.792-2.771,10.973,10.973,0,0,0,.227-3.33c-.122-2.087-.216-4.175-.336-6.262q-.219-3.8-.477-7.6c-.139-2.074-.265-4.149-.4-6.223-.175-2.6-.361-5.2-.536-7.8-.136-2.007-.266-4.014-.468-6.016a3.1,3.1,0,0,0-2.274-2.653,5.808,5.808,0,0,0-1.7-.181,24.837,24.837,0,0,0-4.424.51,58.88,58.88,0,0,0-9.744,2.734,21.782,21.782,0,0,0-4.7,2.288,3.661,3.661,0,0,0-1.675,2.45,2.468,2.468,0,0,0,.308,1.862C46.391,38.42,47.338,40.032,48.329,41.616Z" fill-rule="evenodd"/>
    <path d="M104.5,92.405a1.825,1.825,0,0,0-.959-.747c-.571-.2-1.135-.414-1.708-.6q-8.871-2.941-17.743-5.877a4.067,4.067,0,0,0-1.419-.241,3.84,3.84,0,0,0-3.384,1.947,3.9,3.9,0,0,0-.084,4.453c2.8,4.254,5.424,8.616,8.121,12.933.907,1.451,1.769,2.932,2.761,4.329a3.572,3.572,0,0,0,1.517,1.283,3.025,3.025,0,0,0,2.53-.21,12.063,12.063,0,0,0,3.288-2.463,40.008,40.008,0,0,0,5.769-7.093,16.678,16.678,0,0,0,1.911-3.724,4.159,4.159,0,0,0,.271-1.972A5.025,5.025,0,0,0,104.5,92.405Z" fill-rule="evenodd"/>
    <path d="M65.484,81.579a4.166,4.166,0,0,0-2.7-3.754c-4.35-1.8-8.691-3.629-13.047-5.419-1.965-.808-3.918-1.65-5.932-2.334a2.669,2.669,0,0,0-1.148-.189,3.254,3.254,0,0,0-2.541,1.657,8.472,8.472,0,0,0-.983,2.734,32.089,32.089,0,0,0-.619,5.188,41.143,41.143,0,0,0,.149,6.967,10.809,10.809,0,0,0,.776,3.251,3.134,3.134,0,0,0,2.813,1.953,5.291,5.291,0,0,0,1.485-.242c2.413-.633,4.8-1.348,7.2-2.041,3.987-1.153,7.939-2.417,11.873-3.739A3.751,3.751,0,0,0,65.484,81.579Z" fill-rule="evenodd"/>
    <path d="M68.143,89.373a3.779,3.779,0,0,0-3.239,1.44c-3.609,4.562-7.477,8.91-11.16,13.411a30.955,30.955,0,0,0-2.115,2.731,2.449,2.449,0,0,0-.415,2.1,4.243,4.243,0,0,0,1.657,2.336c.36.245.71.506,1.086.727a40.9,40.9,0,0,0,10.865,4.345,12,12,0,0,0,4.341.482,3.143,3.143,0,0,0,2.748-2.745q.072-1.087.073-2.179.011-9.246.011-18.492a3.226,3.226,0,0,1,.013-.5,2.475,2.475,0,0,0-.16-1.217A3.94,3.94,0,0,0,68.143,89.373Z" fill-rule="evenodd"/>
    <path d="M78.461,74.552a4.2,4.2,0,0,0,2.658,3.46,4.89,4.89,0,0,0,2.8-.011q6.144-1.419,12.271-2.909c2.337-.565,4.679-1.108,6.988-1.782a3.214,3.214,0,0,0,2.384-3.258,3.321,3.321,0,0,0-.045-.667,11.3,11.3,0,0,0-.929-2.583,43.741,43.741,0,0,0-5.357-8.34,18.929,18.929,0,0,0-3.271-3.356,3.31,3.31,0,0,0-4.754.537q-.54.641-1.038,1.317C86.5,61.95,82.936,67.026,79.212,71.981A3.617,3.617,0,0,0,78.461,74.552Z" fill-rule="evenodd"/>
  </g>
  <path d="M72,6A66,66,0,1,1,6,72,66.074,66.074,0,0,1,72,6m0-6a72,72,0,1,0,72,72A72,72,0,0,0,72,0Z"/>
</svg>
