<svg xmlns="http://www.w3.org/2000/svg" width="2in" height="2in" viewBox="0 0 144 144">
  <title>Artboard 45</title>
  <path d="M102.863,40.629H56.024A16.217,16.217,0,0,0,40.383,52.585,16.143,16.143,0,0,0,24.9,68.785V82.677A16.251,16.251,0,0,0,41.137,98.91H51.394l34.17,14.22a3.185,3.185,0,0,0,1.224.249,2.757,2.757,0,0,0,2.41-1.337,2.9,2.9,0,0,0-.853-3.779L76.623,98.91H87.976a16.217,16.217,0,0,0,15.642-11.957,16.141,16.141,0,0,0,15.478-16.2V56.862A16.251,16.251,0,0,0,102.863,40.629ZM99.528,68.785v13.9A11.595,11.595,0,0,1,87.976,94.229H63.247l11.9,9.5L52.4,94.257l-11.262-.028A11.566,11.566,0,0,1,29.584,82.677V68.785A11.608,11.608,0,0,1,40.2,57.28c.311-.025.624-.047.94-.047H87.976A11.565,11.565,0,0,1,99.528,68.785Z"/>
  <path d="M72,6A66,66,0,1,1,6,72,66.074,66.074,0,0,1,72,6m0-6a72,72,0,1,0,72,72A72,72,0,0,0,72,0Z"/>
</svg>
