<svg xmlns="http://www.w3.org/2000/svg" width="2in" height="2in" viewBox="0 0 144 144">
  <title>Artboard 55</title>
  <path d="M41.758,59.265a134.794,134.794,0,0,0,13.6,13.718q1.382,1.266,2.759,2.538c2.31,2.139,4.655,4.239,7,6.339q1.517,1.355,3.028,2.716A10.59,10.59,0,0,0,62.083,88.6c-.632.753-1.242,1.524-1.853,2.294a42.192,42.192,0,0,1-4.9,5.486,5.786,5.786,0,0,0-1.9,4.616,29.053,29.053,0,0,0-4.14,1.6c-.956.5-5.781,4.226-3.369,5.435a1.606,1.606,0,0,0,1.311-.153c2.248-.962,4.136-2.234,6.512-2.955a.894.894,0,0,1,.349-.062,2.275,2.275,0,0,1,.256.276,1.744,1.744,0,0,1-.242.116l-.709.332a11.4,11.4,0,0,0-4.082,2.735c-.61.718-1.518,1.4-1.482,2.432a2.394,2.394,0,0,0,1.01,1.8c1.731,1.257,5.007-3.8,6.6-4.935a.844.844,0,0,1,.084.13,12.7,12.7,0,0,0,1.966,2.566c2.08,2.2,4.272,3.288,6.651,3.288a8.6,8.6,0,0,0,2.049-.256,10.466,10.466,0,0,0,4.967-2.915,4.275,4.275,0,0,1-.452-2.024c0-.092.009-.178.013-.268a4.869,4.869,0,0,1-1.266-.926c-1.047-1.048-1.489-2.3-.986-2.807s1.76-.061,2.807.986a5.163,5.163,0,0,1,.388.434.591.591,0,0,1,.664,0,5.163,5.163,0,0,1,.388-.434c1.047-1.047,2.3-1.489,2.807-.986s.061,1.759-.986,2.807a4.915,4.915,0,0,1-1.266.927c0,.089.012.175.012.267a4.688,4.688,0,0,1-.293,1.686,13.528,13.528,0,0,0,5.076,3.022,7.89,7.89,0,0,0,8.365-2.067,16.051,16.051,0,0,0,2.249-3.116,55.014,55.014,0,0,1,6.4,4.175c.9.644,1.507-.319,1.541-1.142.132-3.241-3.532-4.731-5.978-5.841l-.459-.208c.03-.081.059-.168.085-.254.339-1.11,5.465,2.4,6.056,2.828,1.322.952,3.44.934,2.52-1.313-.911-2.227-4.845-5-7.188-5.173-.44-.033-.727,0-.729.136a8.151,8.151,0,0,0-.121-1.52,3.169,3.169,0,0,1-.1-.459,5.908,5.908,0,0,0-2.536-3.611,14.486,14.486,0,0,1-3.993-4.491,25.707,25.707,0,0,0-2.3-3.118,10.072,10.072,0,0,0-6.258-3.311c.288-.261.577-.517.868-.775l2.452-2.2C84.66,76.49,90.568,71.156,96.17,65.67c1.879-1.839,3.868-3.81,5.725-5.9a28.2,28.2,0,0,0,4.323-7.425l.355-.783c1.555-3.422,1.83-7.177.87-11.819-.584-2.82-2.589-4.572-4.768-6.266-3.544-2.755-7.134-3.646-10.984-2.736a19.831,19.831,0,0,0-8.81,5.211,38.226,38.226,0,0,0-9.641,15.35c-.323.893-.655,1.783-1,2.706l-.083-.246a55.953,55.953,0,0,0-4.992-10.652c-3.53-5.749-7.919-9.6-13.418-11.79-6.808-2.7-13.266,1.421-16.393,6.394-1.585,2.52-1.461,5.368-1.2,8.072A24.711,24.711,0,0,0,41.758,59.265ZM65.719,98.616c-.833,0-1.508-1.406-1.508-3.141s.675-3.14,1.508-3.14,1.507,1.406,1.507,3.14S66.551,98.616,65.719,98.616Zm12.562-6.281c.833,0,1.507,1.406,1.507,3.14s-.674,3.141-1.507,3.141-1.507-1.406-1.507-3.141S77.448,92.335,78.281,92.335Z"/>
  <path d="M72,6A66,66,0,1,1,6,72,66.074,66.074,0,0,1,72,6m0-6a72,72,0,1,0,72,72A72,72,0,0,0,72,0Z"/>
</svg>
