<svg xmlns="http://www.w3.org/2000/svg" width="2in" height="2in" viewBox="0 0 144 144">
  <title>Artboard 40</title>
  <path d="M72,31.5A40.5,40.5,0,1,1,31.5,72.051,40.52,40.52,0,0,1,72,31.5ZM42.543,70.015c2.174,0,4.348-.013,6.521.011.431.005.541-.128.561-.535A50,50,0,0,1,52.075,56.3c.086-.262,0-.34-.224-.431a53.752,53.752,0,0,1-9.321-4.914.443.443,0,0,0-.425.046,36.278,36.278,0,0,0-6.574,18.591c-.024.334.063.436.409.434C38.141,70.007,40.342,70.015,42.543,70.015Zm58.888,0c2.133,0,4.267-.026,6.4.016.591.012.674-.178.632-.7a36.712,36.712,0,0,0-6.517-18.289c-.132-.189-.218-.284-.465-.119a53.571,53.571,0,0,1-9.341,4.963.444.444,0,0,0-.2.38,51.5,51.5,0,0,1,2.446,13.321c.017.359.147.438.486.435C97.056,70.008,99.244,70.015,101.431,70.015Zm7.038,4.385c.1-.333-.078-.424-.469-.423q-6.562.019-13.124,0c-.342,0-.452.077-.468.437a51.191,51.191,0,0,1-2.355,13.3c-.089.278-.022.377.224.477a53.666,53.666,0,0,1,9.208,4.868.436.436,0,0,0,.419-.07A36.374,36.374,0,0,0,108.469,74.4Zm-65.887-.415c-2.134,0-4.267.023-6.4-.015-.565-.01-.692.137-.647.686a36.737,36.737,0,0,0,6.51,18.291c.149.215.247.283.5.115A51.669,51.669,0,0,1,51.7,88.194c.224-.092.346-.165.251-.465a51.112,51.112,0,0,1-2.367-13.375c-.014-.308-.114-.376-.4-.375C46.983,73.99,44.783,73.985,42.582,73.985Zm39.651,0q-3.907,0-7.817,0c-.28,0-.438.022-.437.38.014,3.159.01,6.318,0,9.478,0,.247.026.393.339.405A51.879,51.879,0,0,1,87.863,86.6c.284.089.4.044.486-.244a48.986,48.986,0,0,0,2.119-12.031c.017-.328-.13-.34-.377-.34Q86.163,73.989,82.233,73.985Zm-20.437,0H53.938c-.209,0-.426-.059-.408.306A48.52,48.52,0,0,0,55.67,86.4c.086.275.2.274.437.2a52.224,52.224,0,0,1,13.58-2.358c.324-.012.328-.179.328-.415,0-3.146-.009-6.292.006-9.437,0-.365-.137-.413-.448-.411C66.98,73.99,64.388,73.985,61.8,73.985Zm-.046-3.97c2.618,0,5.236,0,7.853.006.309,0,.418-.072.417-.4q-.018-4.737,0-9.474c0-.263-.056-.378-.353-.39a52.007,52.007,0,0,1-13.379-2.308c-.31-.095-.419-.068-.526.264a48.057,48.057,0,0,0-2.2,11.967c-.022.385.189.336.42.336Zm20.414,0h7.853c.225,0,.447.059.425-.332a48.035,48.035,0,0,0-2.225-12.044c-.082-.255-.179-.294-.421-.218a51.879,51.879,0,0,1-13.5,2.336c-.337.013-.315.2-.315.425,0,3.144.006,6.288-.006,9.432,0,.322.095.409.411.407C76.982,70.01,79.573,70.015,82.164,70.015ZM70.013,98.125c0-3.172-.005-6.343.007-9.515,0-.329-.073-.439-.423-.422a50.319,50.319,0,0,0-12.148,2.123c-.317.1-.264.232-.167.459a47.3,47.3,0,0,0,12.385,17.082,1.817,1.817,0,0,0,.294.173,2.561,2.561,0,0,0,.05-.345Q70.014,102.9,70.013,98.125Zm3.974.015q0,4.778,0,9.554a1.826,1.826,0,0,0,.063.338,1.882,1.882,0,0,0,.261-.164A47.35,47.35,0,0,0,86.74,90.719c.093-.217.088-.321-.166-.4a50.048,50.048,0,0,0-12.187-2.133c-.324-.015-.408.078-.406.4C73.992,91.77,73.987,94.955,73.987,98.14ZM70.013,46.085q0-4.678,0-9.356a2.841,2.841,0,0,0-.043-.352,1.525,1.525,0,0,0-.3.162A47.357,47.357,0,0,0,57.422,53.291c-.092.209-.144.338.166.432a50.025,50.025,0,0,0,12,2.09c.381.019.437-.117.435-.452C70.008,52.269,70.013,49.177,70.013,46.085Zm3.974-.01c0,3.1.005,6.211-.007,9.316,0,.333.078.438.425.421a50.034,50.034,0,0,0,12-2.085c.346-.1.255-.253.162-.463a47.34,47.34,0,0,0-12.2-16.691,2.252,2.252,0,0,0-.324-.2,2.856,2.856,0,0,0-.051.386Q73.986,41.417,73.987,46.075ZM53.469,52.351c.107-.188.184-.3.236-.419A51.462,51.462,0,0,1,63.844,36.638a2.581,2.581,0,0,0,.187-.25,2.065,2.065,0,0,0-.335.027A36.165,36.165,0,0,0,47.2,45.16c-2.721,2.5-2.712,2.508.5,4.315.27.152.537.312.814.449C50.148,50.727,51.781,51.524,53.469,52.351Zm26.622-16-.122.029a2.633,2.633,0,0,0,.21.281,51.441,51.441,0,0,1,8.814,12.481c1.639,3.246,1.636,3.248,4.941,1.589,6.055-3.038,6.074-3.081.772-7.351A35.885,35.885,0,0,0,80.091,36.352Zm19.138,60c-.074-.059-.132-.113-.2-.155a47.706,47.706,0,0,0-8.217-4.324c-.08-.032-.309.114-.356.224a51.641,51.641,0,0,1-9.807,15.137c-.082.087-.148.188-.222.282a2.238,2.238,0,0,0,.368-.034A36.515,36.515,0,0,0,98.931,96.7C99.031,96.589,99.123,96.472,99.229,96.347Zm-35.6,11.2c-.112-.129-.155-.181-.2-.23A51.448,51.448,0,0,1,53.5,91.991c-.032-.077-.278-.141-.379-.1a48.752,48.752,0,0,0-8.107,4.261c-.2.128-.262.2-.072.411A36.388,36.388,0,0,0,63.323,107.5C63.4,107.517,63.477,107.523,63.63,107.546Z"/>
  <path d="M72,6A66,66,0,1,1,6,72,66.074,66.074,0,0,1,72,6m0-6a72,72,0,1,0,72,72A72,72,0,0,0,72,0Z"/>
</svg>
