<svg xmlns="http://www.w3.org/2000/svg" width="2in" height="2in" viewBox="0 0 144 144">
  <title>Artboard 26</title>
  <path d="M72.056,38.922q13.334,0,26.667,0a22.611,22.611,0,0,1,2.482,45.1c-4.574.43-9.215.17-13.825.189q-8.208.033-16.416-.013a1.473,1.473,0,0,0-1.545.919Q64.6,94.485,59.7,103.811c-.229.438-.51.848-.766,1.271-.268-.407-.567-.8-.8-1.222-3.237-5.909-6.516-11.8-9.655-17.755a3.07,3.07,0,0,0-3.2-1.934,22.624,22.624,0,0,1-.31-45.247Q58.507,38.906,72.056,38.922ZM72.1,48.983V48.96c-8.794,0-17.588-.035-26.382.012A12.111,12.111,0,0,0,33.863,60.046c-.427,6.781,3.951,12.549,10.369,13.279a84.769,84.769,0,0,0,9.164.164.944.944,0,0,1,1.04.722c1.451,3.92,2.933,7.829,4.413,11.738a3.491,3.491,0,0,0,.351.569,4.788,4.788,0,0,0,.3-.556c1.436-3.8,2.892-7.589,4.278-11.406A1.356,1.356,0,0,1,65.3,73.481q16.452.048,32.906.02a12.261,12.261,0,1,0-.011-24.517Q85.145,48.978,72.1,48.983Z"/>
  <path d="M72,6A66,66,0,1,1,6,72,66.074,66.074,0,0,1,72,6m0-6a72,72,0,1,0,72,72A72,72,0,0,0,72,0Z"/>
</svg>
