<svg xmlns="http://www.w3.org/2000/svg" width="2in" height="2in" viewBox="0 0 144 144">
  <title>Artboard 46</title>
  <path d="M116.915,48.743a4.551,4.551,0,0,0-4.423-4.438,63.516,63.516,0,0,1-21.817-3.7c-7.294-2.722-13.33-1.986-18.456,2.262-.152.128-.2.161-.547-.118C66.8,38.828,61.24,37.928,55.146,40.083a70.469,70.469,0,0,1-23.777,4.274h-.091a4.508,4.508,0,0,0-4.188,4.364c-.112,6.424-.094,12.953-.078,19.268q.009,3.52.013,7.041v25.194c0,2,.377,3.226,1.22,3.981a4,4,0,0,0,2.808.854,11.737,11.737,0,0,0,1.3-.08c.766-.085,1.527-.2,2.291-.323l.649-.1c2.289-.352,4.6-.788,6.84-1.208,5.64-1.061,11.451-2.175,17.346-1.986l.37.009c1.5.029,2.789.054,3.275,1.85a2.8,2.8,0,0,0,2.916,1.812q6,.011,12,0a2.784,2.784,0,0,0,2.9-1.839c.468-1.807,1.8-1.825,3.37-1.807a56.73,56.73,0,0,1,8.113.445c3.493.5,7.037,1.075,10.465,1.634,3.19.52,6.491,1.057,9.746,1.531a3.714,3.714,0,0,0,3.1-.7,4.353,4.353,0,0,0,1.246-3.406l.008-11C117,76.4,117.017,62.458,116.915,48.743Zm-7,.31q-.03,22.8-.011,45.59c0,.337-.071.415-.08.423a1.674,1.674,0,0,1-.689.036,67.427,67.427,0,0,1-21.283-4.253,14.687,14.687,0,0,0-5.16-1.036,10.556,10.556,0,0,0-7.18,2.833,1.046,1.046,0,0,1-.006-.111q-.007-9.5,0-18.994V49.9c0-4.113,2.524-6.624,6.754-6.714a15.058,15.058,0,0,1,5.682,1.1,67.638,67.638,0,0,0,21.414,4.186C109.864,48.491,109.922,48.551,109.92,49.053ZM68.543,73.7q0,9.494-.005,18.991c0,.021,0,.041,0,.063C65.052,89.605,60.911,89,55.886,90.9a68.086,68.086,0,0,1-21,4.239c-.434.018-.682-.018-.782-.116-.073-.067-.156-.258-.154-.771.071-13.1.114-26.955.138-44.928,0-.722.09-.816.794-.842a66.244,66.244,0,0,0,21.038-4.147,15.258,15.258,0,0,1,5.378-1.118,9.459,9.459,0,0,1,6.513,2.556,1.9,1.9,0,0,1,.753,1.614q-.033,8.63-.019,17.261Z"/>
  <path d="M72,6A66,66,0,1,1,6,72,66.074,66.074,0,0,1,72,6m0-6a72,72,0,1,0,72,72A72,72,0,0,0,72,0Z"/>
</svg>
